<?xml version="1.0" encoding="utf-8"?>
<!-- Generator: Adobe Illustrator 19.0.0, SVG Export Plug-In . SVG Version: 6.00 Build 0)  -->
<svg version="1.1" id="Layer_1" xmlns="http://www.w3.org/2000/svg" xmlns:xlink="http://www.w3.org/1999/xlink" x="0px" y="0px"
	 viewBox="0 0 214 82" style="enable-background:new 0 0 214 82;" xml:space="preserve">
<style type="text/css">
	.st0{fill:#FFFFFF;}
</style>
<path id="XMLID_201_" class="st0" d="M94.4,71.7c-4.5-3.2-10-4.6-15-4.4c-5,0.2-7.3,4-7.3,4c-2.3-4-6.8-6.4-13.7-6.3
	c-11.2,0.1-22.3,5.3-31.2,5.3c-8.5,0-14.6-5.3-14.4-14.7C13.2,39,27.2,24.1,37.7,17.4c6-3.9,11-5,14.3-4.6c2.4,0.3,5.3,3,3.5,7.1
	c-2.7,6-6.4,5.5-6.2,2.6c0.1-1.9,1.3-3,2.2-3.7c0.6-0.4,1.6-0.5,2.2-0.5c0.5-0.5,0.9-3.7-3.4-2.6C46,16.7,40.8,21,35.9,26.4
	C30.9,31.9,23.2,42.2,21.3,53c-0.9,5-0.3,14.2,11.6,14.1c10.1-0.1,25-6.7,38.7-6.6c5.3,0,9.9,1.5,13.5,3.7
	C88.7,66.4,92.9,69.6,94.4,71.7 M97.7,41.7h2.1c0,0-10.4,15-16.2,14.3c-3.3-0.4-2.3-4.4-2.3-4.4s-4.6,5.4-8.8,4.3
	c-3.8-1-1.4-7.3-1.4-7.3c-0.4,0.2-8.7,9.5-14.5,7.3c-6.1-2.3-2.9-10.2-1.8-12.5c1-2,2.1-3.9,2.1-3.9s-0.9,0.3-1.5,0.4
	c-0.6,0.1-1.5,0.3-1.5,0.3s-2.9,4.7-4.6,7c-1.8,2.3-9.2,10.4-13.6,8.8c-4.4-1.6-3.3-7.8-0.8-12.7c4-7.9,13.5-17.7,19.3-16.2
	c5.8,1.5,1,10.9,1,10.9s1.2,0.1,3.9-1.7c4-2.7,9.2-10,14.9-9.2c2.7,0.4,5.2,3.1,1.8,8.3c-1.1,1.7-2.9,3.2-4.3,1.7
	c-0.9-0.9-0.1-2.6,0.8-3.7c1.3-1.6,3.1-1.4,3.1-1.4s0.9-2.2-1.4-2.1c-1.9,0-6.8,4.6-9.6,9.1c-2.5,4.2-6.4,11.3-2.5,12.9
	C65.1,53.2,71.8,45.2,75,41c3.1-4.2,10.2-13.7,16.2-14.1c2-0.1,3.3,1.7,3.3,1.7l0.7-1.1h5.9c0,0-11.2,18.7-12.1,20.1
	c-0.7,1.1-1.6,3.6,0.9,2.2C92.4,48.5,97.7,41.7,97.7,41.7 M51.5,39.8c-0.1,0-1.6-0.5-3.1-1.4c-1.5-0.9-2.1-2.3-2.2-2.4
	c0-0.1-0.1,0-0.2,0.1c-0.1,0.1-0.4,0.5-2.5,3.6c-2.1,3.1-5.3,9.5-2.3,10.6c1.9,0.7,5.1-2.6,6.8-4.8c1.6-2,3.5-5.2,3.6-5.3
	C51.7,39.9,51.6,39.9,51.5,39.8 M53.9,29.9c-1.6-1.2-5.5,1.6-5.6,4.4c0,2.9,3.6,3.7,4,3.7c0,0,0.4,0.1,0.6-0.2
	c0.1-0.2,0.6-1.1,1.1-2.6C54.6,33.8,55.3,31,53.9,29.9 M84.2,45.5c2.4-3.3,9-14.8,9-14.8s-0.1-0.8-0.9-0.8c-0.9,0-2.4,0.3-5.5,4.1
	c-3,3.8-5.4,6.8-7.1,10c-1.9,3.4-2.7,5.9-1.6,6.5c0.3,0.2,0.8,0.2,1.1,0.1c0.7-0.2,1.6-0.9,2.9-2.3C82.7,47.5,83.4,46.6,84.2,45.5
	 M110.9,27.6h-5.6l-3.2,5.2h5.6L110.9,27.6z M185,66.1c-0.6,0-1,0.2-1.4,0.6c-0.4,0.4-0.6,0.9-0.6,1.4c0,0.6,0.2,1.1,0.6,1.5
	c0.4,0.4,0.9,0.6,1.4,0.6c0.6,0,1.1-0.2,1.4-0.6c0.4-0.4,0.6-0.9,0.6-1.5c0-0.6-0.2-1-0.6-1.4C186.1,66.3,185.6,66.1,185,66.1
	 M187.4,68.1c0,0.7-0.2,1.2-0.7,1.7c-0.5,0.5-1,0.7-1.7,0.7c-0.7,0-1.2-0.2-1.7-0.7c-0.5-0.5-0.7-1-0.7-1.7c0-0.6,0.2-1.2,0.7-1.7
	c0.5-0.5,1-0.7,1.7-0.7c0.7,0,1.2,0.2,1.7,0.7C187.2,66.9,187.4,67.5,187.4,68.1 M185.6,67.6c0-0.2-0.1-0.3-0.2-0.4
	c-0.1-0.1-0.3-0.1-0.6-0.1h-0.4v1h0.4c0.2,0,0.3,0,0.4-0.1C185.5,67.9,185.6,67.8,185.6,67.6 M184.1,66.8h0.9c0.3,0,0.6,0,0.7,0.1
	c0.3,0.1,0.4,0.3,0.4,0.7c0,0.2-0.1,0.4-0.3,0.5c-0.1,0.1-0.2,0.1-0.4,0.1c0.2,0,0.4,0.1,0.5,0.2c0.1,0.1,0.1,0.3,0.1,0.4v0.2
	c0,0.1,0,0.1,0,0.2c0,0.1,0,0.1,0,0.1l0,0h-0.4v0c0,0,0,0,0,0l0-0.1v-0.2c0-0.3-0.1-0.5-0.3-0.6c-0.1-0.1-0.3-0.1-0.5-0.1h-0.4v1
	h-0.5V66.8z M194.3,18.3c-4.2,2.7-10,5.1-15.5,4.6c-1.4,1.5-2.9,3.1-4.4,5c9.6,1.9,18.1-4.1,22.6-9.2c2.8-3.2,4.2-6,4.2-6
	S198.4,15.7,194.3,18.3 M177.8,62.1c-0.8,1.3-1.7,3.7,0.9,2.2c3.2-1.9,7.8-8.8,7.8-8.8h2.1c0,0-2.7,4.3-6.3,8.3
	c-3.3,3.6-7.2,6.9-10,6.6c-3.3-0.4-2.2-4.7-2.2-4.7s-4.7,5-7.9,4.6c-4.4-0.5-3-5.9-3-5.9s-4.9,6.1-8.3,5.9c-5.3-0.3-4-6.7-2.5-11.3
	c0.8-2.4,1.5-4.3,1.5-4.3s-0.5,0.1-1.7,0.3c-0.6,0.1-1.7,0.1-1.7,0.1s-2.2,3.9-4,6.2c-1.8,2.3-9.2,10.4-13.6,8.8
	c-4.1-1.5-2.7-7.7-0.4-12.7c3.5-7.2,13.2-17.6,18.8-16.2c5.8,1.4,0.1,12,0.1,12s0,0,0.1,0.1c0.1,0,0.4,0.1,1.1-0.1
	c1.1-0.2,2.1-0.6,2.1-0.6s5.8-12.2,12.3-20.3c6.5-8,19.3-21.8,24.4-18.5c1.2,0.8,0.7,3.6-1,7.1c-0.7,0.2-1.5,0.4-2.3,0.6
	c1.1-2,1.9-3.7,2.1-4.9c0.8-4.1-8.9,4.6-15.8,14c-6.9,9.4-11,17.9-11,17.9s1.4-0.8,3.6-2.5c2.3-1.8,5.4-4.7,8.8-8.2
	c2.3-2.4,5-5.3,7.5-8.6c0.7,0,1.5-0.1,2.2-0.2c-2.8,3.8-5.7,7.2-8.2,9.7c-2.7,2.8-5.7,5.8-8.3,8c-4.1,3.5-7.3,5.4-7.3,5.4
	s-6,12.2-2.8,13c1.9,0.5,5.7-5.4,5.7-5.4s5-7.6,8-11c4.1-4.7,7.6-7.3,11.1-7.4c2.1,0,3.3,2.1,3.3,2.1l1-1.5h5.9
	C189.7,41.9,178.7,60.7,177.8,62.1 M144.4,54.7c-0.1,0-1.4-0.6-2.7-1.7c-1.3-1.1-2-2.4-2.1-2.5c-0.1-0.1-0.1,0-0.2,0.1
	c-0.1,0.1-0.3,0.3-2.4,3.4c-2.1,3.1-5.4,9.5-2.4,10.6c1.9,0.7,5-2.6,6.7-4.8c1.6-2,3.1-4.6,3.2-4.8
	C144.6,54.8,144.5,54.8,144.4,54.7 M147.4,49.5c0.5-1.4,1.2-4.2-0.2-5.3c-1.6-1.2-5.5,1.6-5.5,4.4c0,2.9,2.8,4.2,3.5,4.4
	c0.4,0.1,0.5,0.1,0.7-0.2C145.9,52.5,146.8,50.9,147.4,49.5 M181.5,45.5c0.1-0.2,0.2-0.4,0.2-0.4s-0.1-0.8-0.9-0.8
	c-0.9,0-2.2,0.1-5.5,3.8c-3.3,3.6-5.3,6.8-7,9.9c-1.9,3.4-2.6,6-1.6,6.7c0.3,0.2,0.8,0.2,1.1,0.1c0.7-0.2,1.6-0.9,2.8-2.3
	c0.6-0.7,1.2-1.7,2-2.7C175,56.7,180.4,47.4,181.5,45.5 M194.3,18.3c-4.2,2.7-10,5.1-15.5,4.6c-1.4,1.5-2.9,3.1-4.4,5
	c9.6,1.9,18.1-4.1,22.6-9.2c2.8-3.2,4.2-6,4.2-6S198.4,15.7,194.3,18.3 M167.2,25.3c-4.6-2.3-7.9-5.2-11.4-7c-3.3-1.7-5.5-2.4-8.1-2
	c-0.4,0.1-1.1,0.3-1.1,0.3s1.4,4.7-4.1,12.6c-5.6,8-10.6,8-12,5.8c-1.5-2.3,0.4-7.1,3.7-11.3c3.4-4.4,9.3-8.1,9.3-8.1
	s-1.9-1.2-6.6,1.5c-4.5,2.6-12.4,8.7-19.6,19c-7.2,10.3-8.7,16-9.7,20.5c-1.1,4.5-0.1,9.3,4.9,9.3c5,0,10.7-7.6,12.4-10.2
	c3-4.9,5-12.4,0.9-11.4c-2,0.5-3.7,2.8-4.7,4.9c-1.1,2.2-1.5,4.3-1.5,4.3s-1.7,0.6-4,2.3c-2.3,1.7-3.8,3.4-3.8,3.4s0-3.6,2.9-9.4
	c2.8-5.8,8.1-8.4,11-8.7c2.7-0.2,6.1,2,3.2,10.4c-2.9,8.4-11.6,18.5-20.7,18.6c-8.4,0.1-13.9-10.6-2.2-29.4
	c12.9-20.7,28.2-27.1,33.1-27.8c4.9-0.7,6.5,1.5,6.5,1.5s4.1-1.9,9.4-1.6c6,0.4,10.7,4.7,16.9,7.7C170.1,22.2,168.6,23.8,167.2,25.3
	 M144.7,17.2c0,0-3.5,1.4-7.6,5.9c-4.1,4.5-6.5,9.6-4.7,11c0.7,0.5,2.2,0.6,5.1-2c2.2-2,4.5-4.6,6-8.3
	C145.3,19.3,144.7,17.2,144.7,17.2"/>
</svg>
